<svg xmlns="http://www.w3.org/2000/svg" xmlns:xlink="http://www.w3.org/1999/xlink" viewBox="0 0 2400.1 627.41"><defs><style>.cls-1{fill:url(#Degradado_sin_nombre_11);}.cls-2{fill:url(#Degradado_sin_nombre_11-2);}.cls-3{fill:#307fe2;}.cls-4{fill:url(#Degradado_sin_nombre_11-3);}.cls-5{fill:#252a37;}</style><linearGradient id="Degradado_sin_nombre_11" x1="404.41" y1="556.91" x2="149.15" y2="4.78" gradientUnits="userSpaceOnUse"><stop offset="0" stop-color="#307fe2"/><stop offset="1" stop-color="#2ad2c9"/></linearGradient><linearGradient id="Degradado_sin_nombre_11-2" x1="206.46" y1="609.6" x2="-86.62" y2="-14.38" xlink:href="#Degradado_sin_nombre_11"/><linearGradient id="Degradado_sin_nombre_11-3" x1="274.01" y1="693.02" x2="37.02" y2="256.86" xlink:href="#Degradado_sin_nombre_11"/></defs><title>AZ_horizontal_preference_positive</title><g id="Capa_2" data-name="Capa 2"><g id="AZ_Seller_Kit" data-name="AZ Seller Kit"><path class="cls-1" d="M354,285.13,239.31,39.19A67.85,67.85,0,0,0,149.15,6.37h0a67.84,67.84,0,0,0-32.81,90.16L231,342.47a67.84,67.84,0,0,0,123-57.34Z"/><path class="cls-2" d="M129.34,285a67.84,67.84,0,1,0-123,57.34L121.06,588.23a67.84,67.84,0,0,0,123-57.34Z"/><path class="cls-3" d="M148.94,327a82,82,0,0,1-122.8,57.51L6.44,342.29a67.83,67.83,0,1,1,122.93-57.38Z"/><path class="cls-4" d="M129.34,285A67.84,67.84,0,1,0,96.53,375.1,67.84,67.84,0,0,0,129.34,285Z"/><path class="cls-5" d="M967.72,431.09h39.67c2.8,21.63,18.43,32.85,45.67,32.85,27.64,0,42.86-12.41,42.86-30.84,0-51.28-122.59-8-122.59-93.35,0-35.26,31.25-61.31,79.32-61.31,42.08,0,74.93,22.85,78.13,62.91h-38.46c-2.4-17.63-16-29.24-41.27-29.24-23.63,0-38.46,11.22-38.46,26.83,0,46.48,124.21,3.21,124.21,92.15,0,39.66-32.46,67.3-85,67.3C998.58,498.39,970.52,471.56,967.72,431.09Z"/><path class="cls-5" d="M1167.78,389c0-66.52,44.87-110.59,104.56-110.59,65.31,0,102.57,48.09,102.57,107.78v15.63H1209.84c1.62,36.45,26.05,61.29,64.51,61.29,26.44,0,49.28-12.82,57.69-33.25h40.86c-10.81,40.46-48.07,68.5-99.76,68.5C1210.25,498.39,1167.78,451.92,1167.78,389Zm165.47-19.64c-2.81-35.25-28.45-55.68-60.91-55.68-32,0-58.49,22.83-61.7,55.68Z"/><path class="cls-5" d="M1577,389c0-66.52,44.87-110.59,104.57-110.59,65.31,0,102.56,48.09,102.56,107.78v15.63H1619.06c1.61,36.45,26,61.29,64.51,61.29,26.44,0,49.27-12.82,57.69-33.25h40.86c-10.82,40.46-48.07,68.5-99.76,68.5C1619.47,498.39,1577,451.92,1577,389Zm165.47-19.64c-2.8-35.25-28.44-55.68-60.9-55.68-32,0-58.49,22.83-61.7,55.68Z"/><path class="cls-5" d="M1821.1,283.66h40.46v36.46h2.81c6.41-16.84,26.44-36.87,56.09-36.87h14.89v40.88h-16.09c-35.66,0-56.1,26.83-56.1,65.7V493.19H1821.1Z"/><rect class="cls-5" x="1411.88" y="192.71" width="42.07" height="300.47"/><rect class="cls-5" x="1498.37" y="192.71" width="42.07" height="300.47"/><path class="cls-5" d="M2125.29,493.19l-59.29-99-32.46,35.66v63.3h-42.07V192.71h42.07V373H2036l79.32-89.34h52.49L2094.83,363,2173,493.19Z"/><path class="cls-5" d="M2186,224c0-15.22,11.61-26.44,27.64-26.44,16.43,0,28,11.22,28,26.44,0,16-11.61,26.84-28,26.84C2197.64,250.81,2186,240,2186,224Zm6.41,59.69h42.06V493.19h-42.06Z"/><path class="cls-5" d="M2339.31,318V425.59c0,20,8.35,32.06,30.39,32.06h28.73v35.41h-35.07c-41.09,0-66.14-22.71-66.14-66.47V318h-37.41V284h39.75V224.49h39.75v59.13h60.79V318Z"/><path class="cls-5" d="M744.7,455.44v-2.66L912.65,252.67V212.61H697.58v37.72H860.22V253L703.08,439.63l-102.15-227H549.1L422.84,493.2h44.78l27.73-60.81H654.68L674.57,476l7.84,17.23H913.65V455.44ZM513.18,393.32,573.49,261h3l60.31,132.28Z"/></g></g></svg>