<svg xmlns="http://www.w3.org/2000/svg" viewBox="0 0 1729.6 471.5"><defs><style>.cls-1{fill:#161624;}.cls-2{fill:#4627f6;}</style></defs><g id="Layer_2" data-name="Layer 2"><g id="Reticula"><path class="cls-1" d="M686.64,111.36H527.26a19.26,19.26,0,1,0,0,38.52H585V346.65a21.91,21.91,0,1,0,43.81,0V149.88h57.79a19.26,19.26,0,0,0,0-38.52Z"/><path class="cls-1" d="M804.2,318c-4.91,0-7.93,1.51-12.08,4.15-9.07,6-20.77,11.71-37.39,11.71-24.93,0-44.19-12.46-44.19-39.66h93.29c23,0,23-16.24,23-30.21,0-26.06-11.7-75.16-75.53-75.16-51.36,0-81.58,32.48-81.58,90.27,0,63.07,32.48,91.39,85,91.39,34.37,0,54.38-14.73,60.8-20.77a18.86,18.86,0,0,0,6.42-14A17.73,17.73,0,0,0,804.2,318Zm-52.87-94.42c24.55,0,35.12,18.13,35.12,36.63H711.67C713.56,236,729.42,223.53,751.33,223.53Z"/><path class="cls-1" d="M973.06,316.81a17.71,17.71,0,0,0-11.33,3.78c-8.69,6.42-20,15.11-37.39,15.11-26.44,0-40.79-20-40.79-56.28,0-35.5,14.35-55.89,40.79-55.89,18.88,0,28.7,9.44,33.61,14.73a18.23,18.23,0,0,0,14,6.42,17.89,17.89,0,0,0,18.12-18.13c0-4.53-1.13-7.55-4.15-11.71-6.8-8.68-26.82-26.06-61.56-26.06-51.36,0-82,29.08-82,90.64s30.6,91,82,91c31,0,51.74-13.59,60.43-21.52,4.53-4.16,6.42-8.69,6.42-14A17.9,17.9,0,0,0,973.06,316.81Z"/><path class="cls-1" d="M1101.24,188.78c-25.31,0-41.17,11.71-48.34,22.66a20.4,20.4,0,0,0-40.79,0V348.92c0,11.33,8.68,19.64,20.39,19.64s20.4-8.31,20.4-19.64V264.69c0-22.28,9.44-38.9,37.76-38.9,24.55,0,33.24,14.73,33.24,36.26v86.87c0,11.33,8.31,19.64,20.39,19.64,11.33,0,20.4-8.31,20.4-19.64V254.5C1164.69,221.64,1152.6,188.78,1101.24,188.78Z"/><path class="cls-1" d="M1269.15,188.78c-51,0-82.71,29.08-82.71,91,0,61.56,31.72,90.64,82.71,90.64s82.71-29.08,82.71-90.64C1351.86,217.86,1320.14,188.78,1269.15,188.78Zm0,146.92c-27.19,0-41.54-18.89-41.54-55.9,0-37.39,14.35-56.27,41.54-56.27s41.54,18.88,41.54,56.27C1310.69,316.81,1296.34,335.7,1269.15,335.7Z"/><path class="cls-1" d="M1580.27,339.1l-89.13-217.17c-2.26-5.28-8.31-13.59-20-13.59s-17.75,8.31-20,13.59L1362,339.1a21,21,0,0,0-1.51,7.93A21.76,21.76,0,0,0,1382,368.56c9.82,0,17-6.43,20.4-14.36l37.77-94.79,31-79.31,31,79.31,37.77,94.79c3.4,7.93,10.58,14.36,20.4,14.36A21.76,21.76,0,0,0,1581.78,347,20.81,20.81,0,0,0,1580.27,339.1Z"/><path class="cls-1" d="M1648.63,330.79c-2.64,0-7.17-2.27-7.17-6.8V117a20.4,20.4,0,1,0-40.79,0V320.21c0,31.73,18.5,48.35,48,48.35a18.89,18.89,0,0,0,0-37.77Z"/><path class="cls-1" d="M1705.05,191.05a20.3,20.3,0,0,0-20.39,20.39V348.16a20.4,20.4,0,1,0,40.79,0V211.44A20.31,20.31,0,0,0,1705.05,191.05Zm0-69.12c-15.48,0-24.17,7.56-24.17,24.93,0,14.73,8.69,23.79,24.17,23.79,15.87,0,24.55-9.06,24.55-23.79C1729.6,129.49,1720.92,121.93,1705.05,121.93Z"/><path class="cls-2" d="M402.63,69.08c92,92,92.11,241.14.3,333.26C311.7,493.88,162.64,494.66,70.5,404-4,330.72-19.48,220.29,24.22,131.6a7.12,7.12,0,0,1,11.43-1.89L188.12,282.17c25.8,25.8,67.83,26.84,94,1.43a66.56,66.56,0,0,0,.73-94.76L129.7,35.66a7.13,7.13,0,0,1,1.9-11.44C219.71-19.2,329.31-4.24,402.63,69.08Z"/></g></g></svg>